<svg xmlns="http://www.w3.org/2000/svg" xmlns:xlink="http://www.w3.org/1999/xlink" width="256" zoomAndPan="magnify" viewBox="0 0 192 191.999996" height="256" preserveAspectRatio="xMidYMid meet" version="1.0"><defs><clipPath id="338a65acb7"><path d="M 76.078125 109.660156 L 182.25 109.660156 L 182.25 182.25 L 76.078125 182.25 Z M 76.078125 109.660156 " clip-rule="nonzero"/></clipPath><clipPath id="39f2553c3b"><path d="M 0.078125 0.660156 L 106.25 0.660156 L 106.25 73.25 L 0.078125 73.25 Z M 0.078125 0.660156 " clip-rule="nonzero"/></clipPath><clipPath id="966cc23dae"><rect x="0" width="107" y="0" height="74"/></clipPath><clipPath id="2ec4680c07"><path d="M 122.25 9.75 L 182.25 9.75 L 182.25 102.503906 L 122.25 102.503906 Z M 122.25 9.75 " clip-rule="nonzero"/></clipPath><clipPath id="01af563b1d"><path d="M 0.25 0.75 L 60.25 0.75 L 60.25 93.503906 L 0.25 93.503906 Z M 0.25 0.75 " clip-rule="nonzero"/></clipPath><clipPath id="c8b036f9e5"><rect x="0" width="61" y="0" height="94"/></clipPath><clipPath id="78248eeb00"><path d="M 9.75 9.75 L 69.75 9.75 L 69.75 182.25 L 9.75 182.25 Z M 9.75 9.75 " clip-rule="nonzero"/></clipPath><clipPath id="c7e5c22bc7"><path d="M 0.75 0.75 L 60.75 0.75 L 60.75 173.25 L 0.75 173.25 Z M 0.75 0.75 " clip-rule="nonzero"/></clipPath><clipPath id="c4fc0c0903"><rect x="0" width="61" y="0" height="174"/></clipPath></defs><g clip-path="url(#338a65acb7)"><g transform="matrix(1, 0, 0, 1, 76, 109)"><g clip-path="url(#966cc23dae)"><g clip-path="url(#39f2553c3b)"><path fill="#f97316" d="M 0.078125 0.660156 L 106.128906 0.660156 L 106.128906 73.25 L 0.078125 73.25 Z M 0.078125 0.660156 " fill-opacity="1" fill-rule="nonzero"/></g></g></g></g><g clip-path="url(#2ec4680c07)"><g transform="matrix(1, 0, 0, 1, 122, 9)"><g clip-path="url(#c8b036f9e5)"><g clip-path="url(#01af563b1d)"><path fill="#f97316" d="M 0.25 0.75 L 60.25 0.75 L 60.25 93.5625 L 0.25 93.5625 Z M 0.25 0.75 " fill-opacity="1" fill-rule="nonzero"/></g></g></g></g><g clip-path="url(#78248eeb00)"><g transform="matrix(1, 0, 0, 1, 9, 9)"><g clip-path="url(#c4fc0c0903)"><g clip-path="url(#c7e5c22bc7)"><path fill="#f97316" d="M 0.75 0.75 L 60.75 0.75 L 60.75 173.25 L 0.75 173.25 Z M 0.75 0.75 " fill-opacity="1" fill-rule="nonzero"/></g></g></g></g></svg>