<svg xmlns="http://www.w3.org/2000/svg" xmlns:xlink="http://www.w3.org/1999/xlink" width="1200" zoomAndPan="magnify" viewBox="0 0 900 899.99999" height="1200" preserveAspectRatio="xMidYMid meet" version="1.0"><defs><clipPath id="6afe736b51"><path d="M 0.324219 0.347656 L 320.152344 0.347656 L 320.152344 677.652344 L 0.324219 677.652344 Z M 0.324219 0.347656 " clip-rule="nonzero"/></clipPath><clipPath id="bc5e94a860"><path d="M 0.324219 0.347656 L 320.152344 0.347656 L 320.152344 677.652344 L 0.324219 677.652344 Z M 0.324219 0.347656 " clip-rule="nonzero"/></clipPath><clipPath id="4e473724da"><rect x="0" width="321" y="0" height="678"/></clipPath><clipPath id="eb6f9d8553"><path d="M 659.722656 0.347656 L 829.675781 0.347656 L 829.675781 302.554688 L 659.722656 302.554688 Z M 659.722656 0.347656 " clip-rule="nonzero"/></clipPath><clipPath id="a9a638180b"><path d="M 0.722656 0.347656 L 170.675781 0.347656 L 170.675781 302.554688 L 0.722656 302.554688 Z M 0.722656 0.347656 " clip-rule="nonzero"/></clipPath><clipPath id="b4a858eec7"><rect x="0" width="171" y="0" height="303"/></clipPath><clipPath id="895925046e"><path d="M 376.621094 357.445312 L 829.675781 357.445312 L 829.675781 677.652344 L 376.621094 677.652344 Z M 376.621094 357.445312 " clip-rule="nonzero"/></clipPath><clipPath id="a7bc177802"><path d="M 0.621094 0.445312 L 453.675781 0.445312 L 453.675781 320.652344 L 0.621094 320.652344 Z M 0.621094 0.445312 " clip-rule="nonzero"/></clipPath><clipPath id="affdc7d8d0"><rect x="0" width="454" y="0" height="321"/></clipPath><clipPath id="417b9a79ca"><rect x="0" width="831" y="0" height="679"/></clipPath></defs><g transform="matrix(1, 0, 0, 1, 35, 111)"><g clip-path="url(#417b9a79ca)"><g clip-path="url(#6afe736b51)"><g transform="matrix(1, 0, 0, 1, -0.000000000000014211, 0.000000000000071054)"><g clip-path="url(#4e473724da)"><g clip-path="url(#bc5e94a860)"><path fill="#ff6a00" d="M 0.324219 0.347656 L 320.152344 0.347656 L 320.152344 677.484375 L 0.324219 677.484375 Z M 0.324219 0.347656 " fill-opacity="1" fill-rule="nonzero"/></g></g></g></g><g clip-path="url(#eb6f9d8553)"><g transform="matrix(1, 0, 0, 1, 659, 0.000000000000071054)"><g clip-path="url(#b4a858eec7)"><g clip-path="url(#a9a638180b)"><path fill="#ff6a00" d="M 0.722656 0.347656 L 170.675781 0.347656 L 170.675781 302.417969 L 0.722656 302.417969 Z M 0.722656 0.347656 " fill-opacity="1" fill-rule="nonzero"/></g></g></g></g><g clip-path="url(#895925046e)"><g transform="matrix(1, 0, 0, 1, 376, 357)"><g clip-path="url(#affdc7d8d0)"><g clip-path="url(#a7bc177802)"><path fill="#ff6a00" d="M 0.621094 0.445312 L 453.414062 0.445312 L 453.414062 320.652344 L 0.621094 320.652344 Z M 0.621094 0.445312 " fill-opacity="1" fill-rule="nonzero"/></g></g></g></g></g></g></svg>